<?xml version="1.0" encoding="utf-8"?>
<!-- Generator: Adobe Illustrator 21.0.2, SVG Export Plug-In . SVG Version: 6.00 Build 0)  -->
<svg version="1.1" id="Layer_1" xmlns="http://www.w3.org/2000/svg" xmlns:xlink="http://www.w3.org/1999/xlink" x="0px" y="0px"
	 viewBox="0 0 288 288" style="enable-background:new 0 0 288 288;" xml:space="preserve">
<style type="text/css">
	.st0{fill:#1A2953;}
</style>
<path class="st0" d="M280.1,118.7c-8.4-47.4-54.6-93.8-102-102.3C105.5,3.3,41.2,52.2,29,119H14.2c-8,0-12.3,9.7-7,15.9L22,152.1
	l21.5,25c3.7,4.3,10.2,4.3,13.9,0l21.5-25l14.8-17.2c5.3-6.2,1-15.9-7-15.9H70c10.3-38.2,46-66.2,87.8-64.7
	c45.5,1.6,82.4,38.4,84.3,83.9c2,49.7-37.6,90.8-86.7,91.3v0.1c-10.8,0.3-19.4,9.1-19.4,19.9c0,10.8,8.6,19.6,19.4,19.9v0
	c0.1,0,0.3,0,0.4,0c0.1,0,0.1,0,0.2,0c0.1,0,0.2,0,0.4,0C233.4,268.4,294.2,198.6,280.1,118.7z"/>
</svg>
